<svg id="Layer_1" data-name="Layer 1" xmlns="http://www.w3.org/2000/svg" xmlns:xlink="http://www.w3.org/1999/xlink" viewBox="0 0 1589.62 464.17"><defs><style>.cls-1{font-size:241.62px;fill:#fff;font-family:RobotoCondensed-Bold, Roboto Condensed;font-weight:700;}.cls-2{letter-spacing:-0.01em;}.cls-3{letter-spacing:-0.09em;}.cls-4{letter-spacing:-0.02em;}.cls-5{letter-spacing:0em;}.cls-6{fill:url(#Безымянный_градиент_2);}.cls-7{fill:url(#Безымянный_градиент_2-2);}.cls-8{fill:url(#Безымянный_градиент_3);}.cls-9{fill:url(#Безымянный_градиент_6);}</style><linearGradient id="Безымянный_градиент_2" x1="-687.02" y1="691.75" x2="-572.41" y2="691.75" gradientTransform="translate(788.94 -448.89) rotate(6.23)" gradientUnits="userSpaceOnUse"><stop offset="0" stop-color="#009ffd"/><stop offset="1" stop-color="#2a2a72"/></linearGradient><linearGradient id="Безымянный_градиент_2-2" x1="-628.43" y1="838.5" x2="-323.81" y2="838.5" xlink:href="#Безымянный_градиент_2"/><linearGradient id="Безымянный_градиент_3" x1="-696.46" y1="678.51" x2="-303.86" y2="678.51" gradientTransform="translate(788.94 -448.89) rotate(6.23)" gradientUnits="userSpaceOnUse"><stop offset="0" stop-color="#ab1239"/><stop offset="0.58" stop-color="#e62513"/><stop offset="1" stop-color="#e62513"/></linearGradient><linearGradient id="Безымянный_градиент_6" x1="-668.5" y1="808.47" x2="-531.03" y2="808.47" gradientTransform="translate(788.94 -448.89) rotate(6.23)" gradientUnits="userSpaceOnUse"><stop offset="0" stop-color="#f5e3e6"/><stop offset="1" stop-color="#d9e4f5"/></linearGradient></defs><text class="cls-1" transform="translate(474.07 217.16)">БЮРО<tspan class="cls-2" x="0" y="219">Б</tspan><tspan x="129.78" y="219">У</tspan><tspan class="cls-3" x="262.86" y="219">Р</tspan><tspan x="379.3" y="219">А</tspan><tspan class="cls-4" x="523.59" y="219">К</tspan><tspan class="cls-5" x="656.2" y="219">ОВА</tspan></text><path class="cls-6" d="M111.44,102.91s23.95,18.88,32.42,66.29S76.35,272.38,76.35,272.38s21-28.92,5.35-57.94-46.48-80.51-45.48-98.61,15.54-50,15.54-50l60.68,4Z"/><path class="cls-7" d="M325.79,229.06s-110.31,105-219,131.72,31.75,78.46,31.75,78.46,147.24-50.25,221.09-131S325.79,229.06,325.79,229.06Z"/><path class="cls-8" d="M40.41,135s-13-56,43.23-38.63,237,100.45,267.52,186.14c0,0,6.14,23.22-4.21,38.56,0,0,83.76-52.41,55.38-110.13S178.69,27.89,124.34,25.43,3.14,55.54,40.41,135Z"/><path class="cls-9" d="M134.93,138.86s43.77,71.54,45,83.82,1,30.88-27.31,75.48S70.09,407.05,133.06,433.87c0,0,12.57,4,24.45-1.66,0,0-55,27.8-99.7-4s-36.78-72.07-3-127.34S148.63,160.3,134.93,138.86Z"/></svg>