<svg xmlns="http://www.w3.org/2000/svg" width="138" height="32" viewBox="0 0 138 32" fill="none">
                    <g clip-path="url(#clip0_173_1249)">
                        <path d="M102.085 31.2884C101.731 31.2884 101.465 31.1995 101.288 31.0218C101.112 30.844 100.935 30.6662 101.023 30.1329V16.5329C101.023 15.5551 100.846 14.844 100.492 14.3995C100.138 13.9551 99.6962 13.7773 98.9 13.7773C98.4577 13.7773 97.9269 13.8662 97.3077 14.1329C96.6885 14.3995 96.1577 14.6662 95.5385 15.1107L95.45 15.1995V30.3107V30.3995C95.3615 30.7551 95.2731 30.9329 95.1846 31.1107C95.0077 31.2884 94.7423 31.3773 94.4769 31.3773H92.3539C92 31.3773 91.7346 31.2884 91.5577 31.1107C91.3808 30.9329 91.2923 30.6662 91.2923 30.3107V16.5329C91.2923 15.5551 91.1154 14.844 90.7615 14.3995C90.4077 13.9551 89.9654 13.7773 89.2577 13.7773C88.7269 13.7773 88.1077 13.9551 87.5769 14.1329C87.0462 14.3107 86.5154 14.6662 85.8962 15.1995V30.3107C85.8962 30.6662 85.8077 30.9329 85.5423 31.1107C85.3654 31.2884 85.1 31.3773 84.8346 31.3773H82.7115C82.3577 31.3773 82.0923 31.2884 81.9154 31.1107C81.7385 31.0218 81.5615 30.7551 81.65 30.2218V16.1773C81.65 15.1995 81.5615 14.4884 81.4731 13.8662C81.3846 13.3329 81.2962 12.8884 81.0308 12.444C80.9423 12.2662 80.8539 12.1773 80.8539 11.9107V11.8218C80.8539 11.644 80.9423 11.5551 81.0308 11.3773C81.1192 11.2884 81.2077 11.1995 81.3846 11.1107L83.2423 10.044C83.4192 9.9551 83.6846 9.86621 83.8615 9.86621C84.0385 9.86621 84.1269 9.86621 84.2154 9.9551C84.4808 10.044 84.6577 10.2218 84.7462 10.5773C84.8346 10.844 85.0115 11.1995 85.1885 11.7329C85.1885 11.8218 85.2769 11.9107 85.2769 11.9995C86.25 11.2884 87.0462 10.7551 87.8423 10.4884C88.7269 10.1329 89.7 9.9551 90.7615 9.9551C91.7346 9.9551 92.6192 10.2218 93.3269 10.6662C93.8577 11.0218 94.3885 11.5551 94.7423 12.1773C95.8038 11.4662 96.6885 10.9329 97.4846 10.5773C98.4577 10.2218 99.4308 9.9551 100.315 9.9551C102.085 9.9551 103.412 10.4884 104.208 11.644C105.004 12.7107 105.446 14.3995 105.446 16.7107V30.3995C105.446 30.7551 105.358 31.0218 105.092 31.1995C104.915 31.3773 104.65 31.4662 104.385 31.4662H102.085V31.2884Z" fill="#CCCCCC"/>
                        <path d="M113.319 31.2887C112.965 31.2887 112.7 31.1998 112.523 31.0221C112.346 30.9332 112.169 30.6665 112.258 30.1332V14.1332H109.604C109.25 14.1332 108.985 14.0443 108.808 13.8665C108.631 13.7776 108.454 13.5109 108.542 12.9776V11.5554C108.542 11.1998 108.631 11.022 108.808 10.8443C108.985 10.6665 109.162 10.5776 109.515 10.5776H109.604H115.354H115.442C115.708 10.6665 115.973 10.7554 116.15 10.9332C116.327 11.1109 116.504 11.3776 116.504 11.7332V30.3998C116.504 30.7554 116.415 31.022 116.15 31.1998C115.973 31.3776 115.708 31.4665 115.442 31.4665H113.319V31.2887ZM114.027 6.93316C113.142 6.93316 112.435 6.66649 111.904 6.04427C111.285 5.42205 111.019 4.71094 111.019 3.82205C111.019 2.93316 111.285 2.22205 111.904 1.59983C112.523 0.977604 113.231 0.710938 114.115 0.710938C115 0.710938 115.708 0.977604 116.327 1.59983C116.946 2.22205 117.212 2.93316 117.212 3.82205C117.212 4.71094 116.946 5.51094 116.327 6.04427C115.708 6.66649 115 6.93316 114.115 6.93316H114.027Z" fill="#CCCCCC"/>
                        <path d="M122.696 31.3773C122.519 31.3773 122.342 31.3773 122.077 31.2884L120.131 30.4884C119.954 30.4884 119.6 30.3107 119.512 30.044C119.512 29.9551 119.512 29.9551 119.512 29.8662C119.423 29.6884 119.512 29.5107 119.6 29.3329C119.6 29.244 119.688 29.1551 119.777 28.9773L126.323 20.444L120.662 12.3551C120.485 12.1773 120.485 12.0884 120.396 11.9995C120.396 11.9107 120.308 11.8218 120.308 11.644C120.308 11.4662 120.396 11.2884 120.485 11.1107C120.573 11.0218 120.75 10.844 120.927 10.7551L122.431 10.1329L122.873 9.9551C123.05 9.86621 123.227 9.86621 123.404 9.86621H123.669C123.935 9.9551 124.2 10.1329 124.377 10.3995L128.535 16.9773L132.958 10.3995C133.135 10.2218 133.223 10.044 133.4 10.044C133.488 9.9551 133.665 9.9551 133.842 9.86621H134.019C134.108 9.86621 134.285 9.86621 134.373 9.9551C134.462 9.9551 134.462 9.9551 134.55 10.044H134.638L136.496 10.844C136.85 11.0218 137.115 11.2884 137.115 11.5551C137.204 11.9107 137.027 12.1773 136.85 12.3551L130.923 20.1773L137.027 28.9773V29.0662C137.027 29.1551 137.115 29.1551 137.115 29.244C137.204 29.4218 137.292 29.5107 137.292 29.6884C137.292 29.8662 137.292 30.044 137.027 30.2218C136.938 30.3107 136.85 30.3995 136.673 30.4884L134.638 31.2884C134.55 31.2884 134.462 31.2884 134.462 31.2884C134.373 31.2884 134.285 31.3773 134.108 31.3773C133.842 31.3773 133.665 31.2884 133.488 31.1995C133.4 31.1107 133.312 31.0218 133.135 30.844L129.331 25.0662C129.065 24.7107 128.8 24.3551 128.623 23.9995C128.535 23.9107 128.535 23.8218 128.446 23.7329C128.269 23.9995 127.915 24.444 127.473 25.1551L123.492 30.9329C123.227 31.1995 123.05 31.3773 122.785 31.4662C122.873 31.2884 122.785 31.3773 122.696 31.3773Z" fill="#CCCCCC"/>
                        <path d="M8.05 29.9551C6.72308 24.8885 2.21154 7.37734 2.12308 6.84401C1.94616 6.22179 0.619232 5.59957 0.619232 4.97734C0.619232 4.26623 0.619232 3.46623 0.619232 3.11068C0.619232 2.48845 1.23846 1.77734 1.94616 1.77734H12.5615C13.3577 1.77734 13.8885 2.39957 13.8885 3.11068V4.88845C13.8885 5.59957 13.8885 5.95512 13.1808 6.22179C12.5615 6.48845 11.6769 6.84401 11.8538 7.55512C11.9423 8.08845 13.8885 19.3773 14.5962 23.3773C14.7731 24.1773 15.0385 24.7107 15.9231 24.7107C16.7192 24.7107 17.25 24.1773 17.4269 23.3773C18.1346 19.4662 20.0808 8.17734 20.1692 7.64401C20.2577 6.9329 19.4615 6.66623 18.7538 6.31068C18.0462 5.95512 18.1346 5.68846 18.1346 4.97734C18.1346 4.62179 18.1346 3.91068 18.1346 3.19957C18.1346 2.48846 18.7538 1.86623 19.4615 1.86623H28.0423C28.8385 1.86623 29.3692 2.57734 29.3692 3.19957C29.3692 3.82179 29.3692 4.26623 29.3692 4.97734C29.3692 5.68846 29.1038 5.95512 28.6615 6.31068C28.2192 6.66623 27.7769 6.9329 27.6 7.64401C27.4231 8.26623 23.0885 25.1551 21.85 30.1329C21.6731 30.9329 20.8769 31.4662 20.1692 31.4662C19.4615 31.4662 10.5269 31.4662 9.81923 31.4662C9.02308 31.3773 8.31539 30.844 8.05 29.9551Z" fill="white"/>
                        <path d="M39.1 31.3773C37.3308 31.3773 35.7385 31.1107 34.3231 30.6662C33.0846 30.2218 31.8462 29.5107 30.9615 28.7107C29.9885 27.8218 29.2808 26.7551 28.75 25.4218C28.2192 24.0885 27.9538 22.3996 27.9538 20.5329C27.9538 18.6662 28.2192 17.0662 28.75 15.7329C29.2808 14.3996 29.9885 13.3329 30.9615 12.444C31.9346 11.5551 33.0846 10.9329 34.4115 10.4885C35.8269 10.044 37.4192 9.77734 39.1885 9.77734C40.9577 9.77734 42.55 10.044 43.9654 10.4885C45.2923 10.9329 46.4423 11.5551 47.4154 12.444C48.3885 13.3329 49.0962 14.3996 49.6269 15.7329C50.1577 17.0662 50.4231 18.7551 50.4231 20.5329C50.4231 22.3996 50.1577 23.9996 49.6269 25.4218C49.0962 26.7551 48.3885 27.8218 47.4154 28.7107C46.4423 29.5996 45.2923 30.2218 43.9654 30.6662C42.4615 31.1107 40.8692 31.3773 39.1 31.3773ZM39.1 14.7551C38.0385 14.7551 37.1538 15.1107 36.5346 15.7329C35.9154 16.3551 35.65 17.3329 35.65 18.4885V22.5773C35.65 23.8218 35.9154 24.7107 36.5346 25.3329C37.1538 25.9551 38.0385 26.3107 39.1 26.3107C40.1615 26.3107 41.0462 25.9551 41.6654 25.3329C42.2846 24.7107 42.55 23.7329 42.55 22.5773V18.4885C42.55 17.244 42.2846 16.3551 41.6654 15.7329C41.1346 15.0218 40.25 14.7551 39.1 14.7551Z" fill="white"/>
                        <path d="M51.9269 30.044C51.9269 29.3329 51.9269 28.8885 51.9269 28.2662C51.9269 27.644 52.6346 27.5551 53.2538 26.9329C53.6961 26.4885 53.6961 25.5996 53.6961 25.5996C53.6961 25.5996 53.6961 8.17734 53.6961 7.55512C53.6961 6.84401 53.6077 6.48845 53.2538 6.22179C52.9 5.95512 51.9269 5.51068 51.9269 4.88845C51.9269 4.26623 51.9269 3.82179 51.9269 3.11068C51.9269 2.39957 52.5461 1.77734 53.2538 1.77734C53.9615 1.77734 58.7384 1.77734 59.4461 1.77734C60.1538 1.77734 60.8615 2.48845 60.8615 3.11068V25.5107C60.8615 25.5107 60.8615 26.3996 61.3038 26.844C61.8346 27.3773 62.6308 27.5551 62.6308 28.1773C62.6308 28.7996 62.6308 29.244 62.6308 29.9551C62.6308 30.6662 62.0115 31.2885 61.3038 31.2885C60.5961 31.2885 53.9615 31.2885 53.2538 31.2885C52.5461 31.2885 51.9269 30.6662 51.9269 30.044Z" fill="white"/>
                        <path d="M65.55 30.044C65.55 29.3329 65.55 28.8885 65.55 28.2662C65.55 27.644 66.2577 27.5551 66.8769 26.9329C67.3192 26.4885 67.3192 25.5996 67.3192 25.5996C67.3192 25.5996 67.3192 8.17734 67.3192 7.55512C67.3192 6.84401 67.2308 6.48845 66.8769 6.22179C66.5231 5.95512 65.55 5.51068 65.55 4.88845C65.55 4.26623 65.55 3.82179 65.55 3.11068C65.55 2.39957 66.1692 1.77734 66.8769 1.77734H73.0692C73.0692 1.77734 74.4846 2.48845 74.4846 3.11068V25.5107C74.4846 25.5107 74.4846 26.3996 74.9269 26.844C75.4577 27.3773 76.2538 27.5551 76.2538 28.1773C76.2538 28.7996 76.2538 29.244 76.2538 29.9551C76.2538 30.6662 75.6346 31.2885 74.9269 31.2885C74.2192 31.2885 67.5846 31.2885 66.8769 31.2885C66.1692 31.2885 65.55 30.6662 65.55 30.044Z" fill="white"/>
                    </g>
                    <defs>
                        <clipPath id="clip0_173_1249">
                        <rect width="138" height="32" fill="white"/>
                        </clipPath>
                    </defs>
                    </svg>