<svg xmlns="http://www.w3.org/2000/svg" width="20" height="20" viewBox="0 0 20 20" fill="none">
  <path d="M13.55 1H6.46C3.45 1 1 3.44 1 6.44V13.56C1 16.56 3.45 19 6.46 19H13.54C16.56 19 19 16.56 19 13.56V6.44C19.01 3.44 16.56 1 13.55 1ZM17.5 14C17.5 15.93 15.93 17.5 14 17.5H6C4.07 17.5 2.5 15.93 2.5 14V6C2.5 4.07 4.07 2.5 6 2.5H14C15.93 2.5 17.5 4.07 17.5 6V14Z" fill="#B611B6"/>
  <path d="M14.87 6.35C15.472 6.35 15.96 5.86199 15.96 5.26C15.96 4.65801 15.472 4.17 14.87 4.17C14.268 4.17 13.78 4.65801 13.78 5.26C13.78 5.86199 14.268 6.35 14.87 6.35Z" fill="#B611B6"/>
  <path d="M10.03 5.45C7.48002 5.45 5.40002 7.51 5.40002 10.05C5.40002 12.6 7.47002 14.66 10.03 14.66C12.59 14.66 14.66 12.599 14.66 10.05C14.65 7.51 12.58 5.45 10.03 5.45ZM10.08 13C8.42002 13 7.08002 11.66 7.08002 10.01C7.08002 8.36 8.42002 7.02 10.08 7.02C11.74 7.02 13.08 8.36 13.08 10.01C13.08 11.66 11.74 13 10.08 13Z" fill="#B611B6"/>
</svg>