<svg width="138" height="32" viewBox="0 0 138 32" fill="none" xmlns="http://www.w3.org/2000/svg">
<g clip-path="url(#clip0_157_1316)">
<path d="M102.085 31.2889C101.731 31.2889 101.465 31.2 101.288 31.0222C101.112 30.8444 100.935 30.6667 101.023 30.1333V16.5333C101.023 15.5556 100.846 14.8444 100.492 14.4C100.138 13.9556 99.6962 13.7778 98.9 13.7778C98.4577 13.7778 97.9269 13.8667 97.3077 14.1333C96.6885 14.4 96.1577 14.6667 95.5385 15.1111L95.45 15.2V30.3111V30.4C95.3615 30.7556 95.2731 30.9333 95.1846 31.1111C95.0077 31.2889 94.7423 31.3778 94.4769 31.3778H92.3539C92 31.3778 91.7346 31.2889 91.5577 31.1111C91.3808 30.9333 91.2923 30.6667 91.2923 30.3111V16.5333C91.2923 15.5556 91.1154 14.8444 90.7615 14.4C90.4077 13.9556 89.9654 13.7778 89.2577 13.7778C88.7269 13.7778 88.1077 13.9556 87.5769 14.1333C87.0462 14.3111 86.5154 14.6667 85.8962 15.2V30.3111C85.8962 30.6667 85.8077 30.9333 85.5423 31.1111C85.3654 31.2889 85.1 31.3778 84.8346 31.3778H82.7115C82.3577 31.3778 82.0923 31.2889 81.9154 31.1111C81.7385 31.0222 81.5615 30.7556 81.65 30.2222V16.1778C81.65 15.2 81.5615 14.4889 81.4731 13.8667C81.3846 13.3333 81.2962 12.8889 81.0308 12.4444C80.9423 12.2667 80.8539 12.1778 80.8539 11.9111V11.8222C80.8539 11.6444 80.9423 11.5556 81.0308 11.3778C81.1192 11.2889 81.2077 11.2 81.3846 11.1111L83.2423 10.0444C83.4192 9.95556 83.6846 9.86667 83.8615 9.86667C84.0385 9.86667 84.1269 9.86667 84.2154 9.95556C84.4808 10.0444 84.6577 10.2222 84.7462 10.5778C84.8346 10.8444 85.0115 11.2 85.1885 11.7333C85.1885 11.8222 85.2769 11.9111 85.2769 12C86.25 11.2889 87.0462 10.7556 87.8423 10.4889C88.7269 10.1333 89.7 9.95556 90.7615 9.95556C91.7346 9.95556 92.6192 10.2222 93.3269 10.6667C93.8577 11.0222 94.3885 11.5556 94.7423 12.1778C95.8038 11.4667 96.6885 10.9333 97.4846 10.5778C98.4577 10.2222 99.4308 9.95556 100.315 9.95556C102.085 9.95556 103.412 10.4889 104.208 11.6444C105.004 12.7111 105.446 14.4 105.446 16.7111V30.4C105.446 30.7556 105.358 31.0222 105.092 31.2C104.915 31.3778 104.65 31.4667 104.385 31.4667H102.085V31.2889Z" fill="#503181"/>
<path d="M113.319 31.2889C112.965 31.2889 112.7 31.2 112.523 31.0222C112.346 30.9333 112.169 30.6667 112.258 30.1333V14.1333H109.604C109.25 14.1333 108.985 14.0444 108.808 13.8667C108.631 13.7778 108.454 13.5111 108.542 12.9778V11.5555C108.542 11.2 108.631 11.0222 108.808 10.8444C108.985 10.6667 109.162 10.5778 109.515 10.5778H109.604H115.354H115.442C115.708 10.6667 115.973 10.7555 116.15 10.9333C116.327 11.1111 116.504 11.3778 116.504 11.7333V30.4C116.504 30.7556 116.415 31.0222 116.15 31.2C115.973 31.3778 115.708 31.4667 115.442 31.4667H113.319V31.2889ZM114.027 6.93333C113.142 6.93333 112.435 6.66666 111.904 6.04444C111.285 5.42222 111.019 4.7111 111.019 3.82222C111.019 2.93333 111.285 2.22222 111.904 1.59999C112.523 0.977772 113.231 0.711105 114.115 0.711105C115 0.711105 115.708 0.977772 116.327 1.59999C116.946 2.22222 117.212 2.93333 117.212 3.82222C117.212 4.7111 116.946 5.5111 116.327 6.04444C115.708 6.66666 115 6.93333 114.115 6.93333H114.027Z" fill="#503181"/>
<path d="M122.696 31.3778C122.519 31.3778 122.342 31.3778 122.077 31.2889L120.131 30.4889C119.954 30.4889 119.6 30.3111 119.512 30.0444C119.512 29.9556 119.512 29.9556 119.512 29.8667C119.423 29.6889 119.512 29.5111 119.6 29.3333C119.6 29.2444 119.688 29.1556 119.777 28.9778L126.323 20.4444L120.662 12.3556C120.485 12.1778 120.485 12.0889 120.396 12C120.396 11.9111 120.308 11.8222 120.308 11.6444C120.308 11.4667 120.396 11.2889 120.485 11.1111C120.573 11.0222 120.75 10.8444 120.927 10.7556L122.431 10.1333L122.873 9.95556C123.05 9.86667 123.227 9.86667 123.404 9.86667H123.669C123.935 9.95556 124.2 10.1333 124.377 10.4L128.535 16.9778L132.958 10.4C133.135 10.2222 133.223 10.0444 133.4 10.0444C133.488 9.95556 133.665 9.95556 133.842 9.86667H134.019C134.108 9.86667 134.285 9.86667 134.373 9.95556C134.462 9.95556 134.462 9.95556 134.55 10.0444H134.638L136.496 10.8444C136.85 11.0222 137.115 11.2889 137.115 11.5556C137.204 11.9111 137.027 12.1778 136.85 12.3556L130.923 20.1778L137.027 28.9778V29.0667C137.027 29.1556 137.115 29.1556 137.115 29.2444C137.204 29.4222 137.292 29.5111 137.292 29.6889C137.292 29.8667 137.292 30.0444 137.027 30.2222C136.938 30.3111 136.85 30.4 136.673 30.4889L134.638 31.2889C134.55 31.2889 134.462 31.2889 134.462 31.2889C134.373 31.2889 134.285 31.3778 134.108 31.3778C133.842 31.3778 133.665 31.2889 133.488 31.2C133.4 31.1111 133.312 31.0222 133.135 30.8444L129.331 25.0667C129.065 24.7111 128.8 24.3556 128.623 24C128.535 23.9111 128.535 23.8222 128.446 23.7333C128.269 24 127.915 24.4444 127.473 25.1556L123.492 30.9333C123.227 31.2 123.05 31.3778 122.785 31.4667C122.873 31.2889 122.785 31.3778 122.696 31.3778Z" fill="#503181"/>
<path d="M8.05 29.9555C6.72308 24.8889 2.21154 7.37777 2.12308 6.84444C1.94616 6.22222 0.619232 5.59999 0.619232 4.97777C0.619232 4.26666 0.619232 3.46666 0.619232 3.1111C0.619232 2.48888 1.23846 1.77777 1.94616 1.77777H12.5615C13.3577 1.77777 13.8885 2.39999 13.8885 3.1111V4.88888C13.8885 5.59999 13.8885 5.95555 13.1808 6.22222C12.5615 6.48888 11.6769 6.84444 11.8538 7.55555C11.9423 8.08888 13.8885 19.3778 14.5962 23.3778C14.7731 24.1778 15.0385 24.7111 15.9231 24.7111C16.7192 24.7111 17.25 24.1778 17.4269 23.3778C18.1346 19.4667 20.0808 8.17777 20.1692 7.64444C20.2577 6.93333 19.4615 6.66666 18.7538 6.3111C18.0462 5.95555 18.1346 5.68888 18.1346 4.97777C18.1346 4.62222 18.1346 3.9111 18.1346 3.19999C18.1346 2.48888 18.7538 1.86666 19.4615 1.86666H28.0423C28.8385 1.86666 29.3692 2.57777 29.3692 3.19999C29.3692 3.82222 29.3692 4.26666 29.3692 4.97777C29.3692 5.68888 29.1038 5.95555 28.6615 6.3111C28.2192 6.66666 27.7769 6.93333 27.6 7.64444C27.4231 8.26666 23.0885 25.1556 21.85 30.1333C21.6731 30.9333 20.8769 31.4667 20.1692 31.4667C19.4615 31.4667 10.5269 31.4667 9.81923 31.4667C9.02308 31.3778 8.31539 30.8444 8.05 29.9555Z" fill="#B611B6"/>
<path d="M39.1 31.3778C37.3308 31.3778 35.7385 31.1111 34.3231 30.6667C33.0846 30.2222 31.8462 29.5111 30.9615 28.7111C29.9885 27.8222 29.2808 26.7555 28.75 25.4222C28.2192 24.0889 27.9538 22.4 27.9538 20.5333C27.9538 18.6667 28.2192 17.0667 28.75 15.7333C29.2808 14.4 29.9885 13.3333 30.9615 12.4444C31.9346 11.5555 33.0846 10.9333 34.4115 10.4889C35.8269 10.0444 37.4192 9.77777 39.1885 9.77777C40.9577 9.77777 42.55 10.0444 43.9654 10.4889C45.2923 10.9333 46.4423 11.5555 47.4154 12.4444C48.3885 13.3333 49.0962 14.4 49.6269 15.7333C50.1577 17.0667 50.4231 18.7555 50.4231 20.5333C50.4231 22.4 50.1577 24 49.6269 25.4222C49.0962 26.7555 48.3885 27.8222 47.4154 28.7111C46.4423 29.6 45.2923 30.2222 43.9654 30.6667C42.4615 31.1111 40.8692 31.3778 39.1 31.3778ZM39.1 14.7555C38.0385 14.7555 37.1538 15.1111 36.5346 15.7333C35.9154 16.3555 35.65 17.3333 35.65 18.4889V22.5778C35.65 23.8222 35.9154 24.7111 36.5346 25.3333C37.1538 25.9555 38.0385 26.3111 39.1 26.3111C40.1615 26.3111 41.0462 25.9555 41.6654 25.3333C42.2846 24.7111 42.55 23.7333 42.55 22.5778V18.4889C42.55 17.2444 42.2846 16.3555 41.6654 15.7333C41.1346 15.0222 40.25 14.7555 39.1 14.7555Z" fill="#B611B6"/>
<path d="M51.9269 30.0444C51.9269 29.3333 51.9269 28.8889 51.9269 28.2667C51.9269 27.6444 52.6346 27.5555 53.2538 26.9333C53.6961 26.4889 53.6961 25.6 53.6961 25.6C53.6961 25.6 53.6961 8.17777 53.6961 7.55555C53.6961 6.84444 53.6077 6.48888 53.2538 6.22222C52.9 5.95555 51.9269 5.5111 51.9269 4.88888C51.9269 4.26666 51.9269 3.82222 51.9269 3.1111C51.9269 2.39999 52.5461 1.77777 53.2538 1.77777C53.9615 1.77777 58.7384 1.77777 59.4461 1.77777C60.1538 1.77777 60.8615 2.48888 60.8615 3.1111V25.5111C60.8615 25.5111 60.8615 26.4 61.3038 26.8444C61.8346 27.3778 62.6308 27.5555 62.6308 28.1778C62.6308 28.8 62.6308 29.2444 62.6308 29.9555C62.6308 30.6667 62.0115 31.2889 61.3038 31.2889C60.5961 31.2889 53.9615 31.2889 53.2538 31.2889C52.5461 31.2889 51.9269 30.6667 51.9269 30.0444Z" fill="#B611B6"/>
<path d="M65.55 30.0444C65.55 29.3333 65.55 28.8889 65.55 28.2667C65.55 27.6444 66.2577 27.5555 66.8769 26.9333C67.3192 26.4889 67.3192 25.6 67.3192 25.6C67.3192 25.6 67.3192 8.17777 67.3192 7.55555C67.3192 6.84444 67.2308 6.48888 66.8769 6.22222C66.5231 5.95555 65.55 5.5111 65.55 4.88888C65.55 4.26666 65.55 3.82222 65.55 3.1111C65.55 2.39999 66.1692 1.77777 66.8769 1.77777H73.0692C73.0692 1.77777 74.4846 2.48888 74.4846 3.1111V25.5111C74.4846 25.5111 74.4846 26.4 74.9269 26.8444C75.4577 27.3778 76.2538 27.5555 76.2538 28.1778C76.2538 28.8 76.2538 29.2444 76.2538 29.9555C76.2538 30.6667 75.6346 31.2889 74.9269 31.2889C74.2192 31.2889 67.5846 31.2889 66.8769 31.2889C66.1692 31.2889 65.55 30.6667 65.55 30.0444Z" fill="#B611B6"/>
</g>
<defs>
<clipPath id="clip0_157_1316">
<rect width="138" height="32" fill="white"/>
</clipPath>
</defs>
</svg>
