<svg xmlns="http://www.w3.org/2000/svg" width="25" height="24" viewBox="0 0 25 24" fill="none">
<path d="M14.0868 8.32075L14.2334 8.90061L14.7781 8.65363L20.6772 5.97886L16.7569 11.1349L16.3949 11.611L16.9276 11.8829L22.6969 14.8274L16.2214 14.977L15.6234 14.9909L15.743 15.5769L17.038 21.9233L12.8836 16.9539L12.5 16.495L12.1164 16.9539L7.96197 21.9233L9.25699 15.5769L9.37657 14.9909L8.77864 14.977L2.30314 14.8274L8.07243 11.8829L8.60515 11.611L8.24315 11.1349L4.32275 5.97886L10.2219 8.65363L10.7666 8.90061L10.9132 8.32075L12.5 2.04091L14.0868 8.32075Z" stroke="#865286"/>
</svg>