<svg xmlns="http://www.w3.org/2000/svg" width="20" height="20" viewBox="0 0 20 20" fill="none">
<path d="M18.8 4.1C19.5 4.1 19.6 4.4 19.5 4.9C19.2 6.2 16.6 10 16.6 10C16.4 10.4 16.3 10.5 16.6 11C16.8 11.3 17.6 12 18.1 12.5C19 13.6 19.7 14.4 19.9 15C20.1 15.6 19.7 15.9 19.1 15.9H17C16.2 15.9 15.9 15.2 14.5 13.8C13.2 12.6 12.7 12.4 12.4 12.4C11.9 12.4 11.9 12.6 11.9 13.2V15.2C11.9 15.7 11.7 16 10.4 16C8.1 16 5.6 14.6 3.7 12C0.8 8.2 0 5.2 0 4.7C0 4.4 0.2 4.1 0.8 4.1H2.9C3.4 4.1 3.7 4.3 3.9 4.9C5 8 6.8 10.8 7.5 10.8C7.8 10.8 7.9 10.6 7.9 10V6.7C7.8 5.2 7.1 5.1 7.1 4.5C7.1 4.3 7.3 4 7.6 4H11.1C11.6 4 11.7 4.2 11.7 4.8V9.3C11.7 9.8 11.9 9.9 12 9.9C12.3 9.9 12.5 9.7 13 9.2C14.5 7.4 15.7 4.7 15.7 4.7C15.9 4.4 16.1 4.1 16.6 4.1H18.8Z" fill="#B611B6"/>
</svg>