<svg xmlns="http://www.w3.org/2000/svg" width="20" height="20" viewBox="0 0 20 20" fill="none">
  <path d="M19 4.74C18.339 5.029 17.626 5.229 16.881 5.32C17.644 4.86 18.227 4.139 18.503 3.28C17.79 3.7 17.001 4.009 16.159 4.17C15.485 3.45 14.526 3 13.464 3C11.423 3 9.771 4.66 9.771 6.7C9.771 6.99 9.804 7.269 9.868 7.539C6.795 7.38 4.076 5.919 2.254 3.679C1.936 4.219 1.754 4.86 1.754 5.539C1.754 6.82 2.405 7.95 3.397 8.61C2.79 8.589 2.22 8.429 1.723 8.149V8.189C1.723 9.978 2.997 11.478 4.686 11.82C4.376 11.899 4.049 11.939 3.713 11.939C3.475 11.939 3.245 11.919 3.018 11.88C3.49 13.349 4.852 14.419 6.469 14.449C5.205 15.429 3.612 16.019 1.882 16.019C1.583 16.019 1.29 16.009 1 15.969C2.635 17.019 4.576 17.629 6.662 17.629C13.454 17.629 17.17 12 17.17 7.129C17.17 6.969 17.166 6.809 17.157 6.649C17.879 6.129 18.504 5.478 19 4.74Z" fill="#B611B6"/>
</svg>