<svg width="71" height="71" viewBox="0 0 71 71" fill="none" xmlns="http://www.w3.org/2000/svg">
<path fill-rule="evenodd" clip-rule="evenodd" d="M0.0832022 38.8224C0.750595 45.731 3.55545 52.5789 7.91723 57.9486C9.20026 59.528 11.7171 62.0288 13.2918 63.2885C17.2731 66.4736 22.6584 69.0837 27.4818 70.1662C30.5116 70.846 31.9845 71 35.46 71C38.9356 71 40.4085 70.846 43.4382 70.1662C48.3668 69.0601 53.8292 66.3819 57.8684 63.0909C59.4454 61.8059 61.9424 59.2852 63.2001 57.7082C66.3805 53.7208 68.9866 48.3273 70.0675 43.4965C70.7463 40.4622 70.9 38.9871 70.9 35.5062C70.9 32.0254 70.7463 30.5503 70.0675 27.5159C69.2548 23.8839 67.2285 19.1349 65.1599 16.0141C61.5719 10.6015 56.8512 6.44446 51.0695 3.60616C47.5279 1.86762 44.3561 0.88015 40.3163 0.258156C38.081 -0.0860515 32.839 -0.0860516 30.6037 0.258156C26.564 0.88015 23.3922 1.86762 19.8505 3.60616C16.0712 5.46144 13.196 7.52947 10.2452 10.5151C7.34808 13.4463 5.44427 16.1315 3.61026 19.873C1.89224 23.3778 0.879079 26.6224 0.290635 30.5036C0.0260368 32.249 -0.0925955 37.0038 0.0832022 38.8224ZM24.9213 52.0865C25.0017 51.8698 28.668 48.0852 33.1419 43.6008L41.2174 35.5062L33.1419 27.4117C28.668 22.9273 25.0017 19.1427 24.9213 18.926C24.2566 17.1341 25.9958 15.3922 27.785 16.058C28.3074 16.2524 45.6974 33.6365 45.9495 34.2164C46.178 34.7421 46.2059 36.1546 45.9987 36.7131C45.8349 37.1549 28.5226 54.59 27.9397 54.9004C27.3973 55.1891 26.495 55.1479 25.8891 54.8068C24.9603 54.2841 24.5421 53.1085 24.9213 52.0865Z" fill="white"/>
</svg>
