<svg width="71" height="71" viewBox="0 0 71 71" fill="none" xmlns="http://www.w3.org/2000/svg">
<path fill-rule="evenodd" clip-rule="evenodd" d="M70.8172 32.1776C70.1498 25.269 67.3449 18.4211 62.9832 13.0514C61.7001 11.472 59.1833 8.97124 57.6086 7.71155C53.6273 4.5264 48.242 1.91628 43.4185 0.833771C40.3888 0.15397 38.9159 3.81949e-07 35.4404 4.23453e-07C31.9648 4.64957e-07 30.4919 0.15397 27.4622 0.833771C22.5336 1.93991 17.0712 4.61812 13.032 7.90915C11.455 9.19413 8.95803 11.7148 7.70025 13.2918C4.51994 17.2792 1.91377 22.6727 0.832901 27.5035C0.154129 30.5378 0.00038948 32.0129 0.000389522 35.4938C0.000389563 38.9746 0.15413 40.4497 0.832902 43.4841C1.64557 47.1161 3.67189 51.8651 5.74053 54.9859C9.3285 60.3985 14.0492 64.5555 19.8308 67.3938C23.3725 69.1324 26.5443 70.1199 30.5841 70.7418C32.8193 71.0861 38.0614 71.0861 40.2966 70.7418C44.3364 70.1199 47.5082 69.1324 51.0499 67.3938C54.8292 65.5386 57.7044 63.4705 60.6552 60.4849C63.5523 57.5537 65.4561 54.8685 67.2901 51.127C69.0082 47.6222 70.0213 44.3776 70.6098 40.4964C70.8744 38.751 70.993 33.9962 70.8172 32.1776ZM45.9791 18.9135C45.8987 19.1302 42.2324 22.9148 37.7585 27.3992L29.683 35.4938L37.7585 43.5883C42.2324 48.0727 45.8987 51.8573 45.9791 52.074C46.6438 53.8659 44.9046 55.6078 43.1154 54.942C42.593 54.7476 25.203 37.3635 24.9509 36.7836C24.7224 36.2579 24.6945 34.8454 24.9016 34.2869C25.0655 33.8451 42.3778 16.41 42.9607 16.0996C43.503 15.8109 44.4053 15.8521 45.0113 16.1932C45.9401 16.7159 46.3583 17.8915 45.9791 18.9135Z" fill="white"/>
</svg>
